<?xml version="1.0" encoding="UTF-8"?>
<svg id="Layer_2" xmlns="http://www.w3.org/2000/svg" version="1.1" viewBox="0 0 495.2 840.83">
  <!-- Generator: Adobe Illustrator 30.5.1, SVG Export Plug-In . SVG Version: 2.1.4 Build 3)  -->
  <defs>
    <style>
      .st0 {
        fill: #ff191a;
        font-family: OpenSans-Bold, 'Open Sans';
        font-size: 100.41px;
        font-weight: 700;
      }

      .st1 {
        fill: #423d3f;
        font-family: OpenSans-Medium, 'Open Sans';
        font-size: 64.43px;
        font-weight: 500;
      }

      .st2 {
        fill: #fb1515;
      }

      .st3 {
        fill: #433d41;
      }

      .st4 {
        fill: #fd1417;
      }
    </style>
  </defs>
  <polygon class="st4" points="323.64 0 105.24 0 105.24 321.6 323.64 0"/>
  <polygon class="st3" points="198.13 320.36 102.84 459.6 311.94 459.6 198.13 320.36"/>
  <polygon class="st3" points="393.4 33.59 393.4 439.22 385.36 429.72 385.38 45.01 393.4 33.59"/>
  <polygon class="st3" points="377.24 57.2 377.2 419.57 361.72 401.33 361.73 79.45 377.24 57.2"/>
  <polygon class="st3" points="353.61 92.24 353.61 391.25 330.02 362.9 330.02 126.7 353.61 92.24"/>
  <polygon class="st3" points="321.79 138.89 321.93 352.78 290.83 315.48 290.32 184.88 321.79 138.89"/>
  <path class="st3" d="M282.73,196.87v108.66s-37.23-40.92-37.23-49.84,37.23-58.82,37.23-58.82Z"/>
  <text class="st0" transform="translate(4.73 748.63)"><tspan x="0" y="0">KADI ONE</tspan></text>
  <text class="st1" transform="translate(0 822.96)"><tspan x="0" y="0">CONSTRUCTION</tspan></text>
  <path class="st2" d="M476.9,544.64h-21.4l-36.7,29.5v17.7l43.84.67s5.46.05,5.56,4.53c.08,3.6.3,13.6.3,13.6h-122.9v-66h-15.9v78.6h153.9v-26.2s1.46-6.48-5.84-13.48-17.99-5.9-17.99-5.9l-20.97-.12,38.1-32.9Z"/>
  <path class="st2" d="M283.47,569.96s20.68-4.21,34.28,15.21c6.52,9.52,6.52,18.3,6.52,18.3l.26,19.95h-50.59v-12.73l36.36-.1s2.41-10.15-5.86-20.94c-5.21-6.6-21.05-6.69-21.05-6.69l.07-13.01Z"/>
  <path class="st2" d="M263.32,558.94v12.6l-25.1-.4v24.3l24.73.49v21.21s.24,4.4-3.48,8.01-8.7,4.79-8.7,4.79h-48.65s-2.96.67-5.77-2.59-3.06-7.26-3.06-7.26v-49.76l13.2-.21-.07,46.61,37.84.06s3.36-.09,3.37-3.36l.02-4.25-23.43-.09-.2-39.52s-.02-3.45,3.09-7.04,6.11-3.59,6.11-3.59h30.1Z"/>
  <rect class="st2" x="232.1" y="637.02" width="14.15" height="13.45"/>
  <rect class="st2" x="232.1" y="637.02" width="14.15" height="13.45"/>
  <rect class="st2" x="212.6" y="637.02" width="14.15" height="13.45"/>
  <rect class="st2" x="52" y="544.64" width="14.15" height="13.45"/>
  <path class="st2" d="M119.33,584.92c.2,29.91,28.43,25.05,28.42,25.7l.08,3.41c.08,3.41-4.88,3.49-4.88,3.49h-38.03v12.48h43.8s5.8-1.34,8.45-3.89c2.65-2.55,3.6-6.83,3.6-6.83l.15-60.51s-41.8-3.77-41.6,26.15ZM147.6,598.6h-5.62s-9.57-1.73-9.31-13.65,9.09-13.65,9.09-13.65h5.85v27.3Z"/>
  <path class="st2" d="M93.17,558.94v54.54s-2.25,8.7-4.8,11.4-9.15,5.85-9.15,5.85H28.37s-6.05-.53-10.55-4.73c-5.65-5.95-5.65-12.95-5.65-12.95v-33.77h15.45v30.6s-.22,3.45,1.8,5.7,4.5,2.55,4.5,2.55h19.8l17.85-.15s1.93.6,4.35-2.55,2.4-6.67,2.4-6.67v-49.81h14.85Z"/>
</svg>